PathFileType	4	(X/Y/Z)	C:/Users/opensim2020/Desktop/walking_exp_matlab/subject06_walking14_straight_01.trc	
DataRate	CameraRate	NumFrames	NumMarkers	Units	OrigDataRate	OrigDataStartFrame	OrigNumFrames	
100.00	100.00	6	45	mm	100.00	886	203	
Frame#	Time	LFHD			RFHD			LBHD			RBHD			C7			T10			CLAV			STRN			RBAK			LSHO			LUPA			LELB			LFRM			LWRA			LWRB			LFIN			RSHO			RUPA			RELB			RFRM			RWRA			RWRB			RFIN			LASI			RASI			LPSI			RPSI			LTHI			LKNE			LTIB			LANK			LHEE			LTOE			RTHI			RKNE			RTIB			RANK			RHEE			RTOE			*39			*40			*41			*42			*43			*44			
		X1	Y1	Z1	X2	Y2	Z2	X3	Y3	Z3	X4	Y4	Z4	X5	Y5	Z5	X6	Y6	Z6	X7	Y7	Z7	X8	Y8	Z8	X9	Y9	Z9	X10	Y10	Z10	X11	Y11	Z11	X12	Y12	Z12	X13	Y13	Z13	X14	Y14	Z14	X15	Y15	Z15	X16	Y16	Z16	X17	Y17	Z17	X18	Y18	Z18	X19	Y19	Z19	X20	Y20	Z20	X21	Y21	Z21	X22	Y22	Z22	X23	Y23	Z23	X24	Y24	Z24	X25	Y25	Z25	X26	Y26	Z26	X27	Y27	Z27	X28	Y28	Z28	X29	Y29	Z29	X30	Y30	Z30	X31	Y31	Z31	X32	Y32	Z32	X33	Y33	Z33	X34	Y34	Z34	X35	Y35	Z35	X36	Y36	Z36	X37	Y37	Z37	X38	Y38	Z38	X39	Y39	Z39	X40	Y40	Z40	X41	Y41	Z41	X42	Y42	Z42	X43	Y43	Z43	X44	Y44	Z44	X45	Y45	Z45	

77	0.760	1378.81567	-526.51776	1673.73914	1509.91626	-524.07867	1660.27588	1379.58228	-659.73859	1618.87512	1508.94153	-655.80029	1610.89661	1432.89636	-660.17218	1460.35388	1435.53674	-697.75104	1133.34229	1433.17932	-549.16681	1382.90430	1424.38538	-510.62375	1206.64941	1510.08093	-732.69360	1289.72156	1271.25671	-606.01086	1415.71326	1203.23682	-596.57001	1212.07251	1194.53369	-588.01007	1098.97021	1172.15137	-528.38037	960.77948	1208.17029	-432.67502	872.34979	1178.19983	-492.06351	847.44049	1172.00000	-426.99792	784.72711	1594.16821	-594.16656	1413.70276	1679.88708	-641.92834	1216.76721	1692.24219	-639.88214	1094.69812	1710.56885	-632.71997	974.94232	1684.42822	-579.20764	832.04523	1720.55176	-636.26312	836.76514	1725.11389	-604.63708	758.12958	1323.96802	-531.79315	962.92554	1544.10083	-525.18207	976.09058	1355.84924	-687.83984	996.45111	1523.49939	-677.17645	1006.63159	1274.34412	-595.57532	643.90094	1292.84521	-584.99133	481.57809	1298.82483	-782.78625	334.42899	1334.05591	-918.67926	230.36722	1382.60352	-950.27301	252.14290	1333.13403	-872.99951	89.75121	1598.14514	-557.76208	644.14032	1566.87207	-539.65393	521.93042	1558.53479	-578.21362	256.14578	1504.13611	-587.52362	72.72997	1458.86072	-627.27887	49.22250	1500.35193	-432.91504	39.25714	1440.28882	-625.79810	1710.86890															 
78	0.770	1379.06885	-516.10797	1674.22583	1510.14783	-513.48334	1661.01111	1380.30872	-649.59528	1619.88452	1509.64905	-645.42242	1612.17004	1434.03479	-650.38446	1461.27991	1436.92810	-688.22089	1134.09363	1433.98132	-539.71765	1383.62756	1425.43420	-501.32861	1207.37122	1511.74402	-723.10004	1290.69177	1272.16699	-597.10535	1416.32166	1204.46167	-589.20026	1212.39600	1195.92566	-582.40375	1099.33350	1173.11646	-526.25256	959.66986	1208.08789	-432.46304	868.50696	1178.92236	-492.76373	845.21252	1171.72253	-429.53009	780.78564	1595.11816	-583.88885	1414.57080	1681.42493	-629.50720	1217.28479	1693.98828	-626.09509	1095.28308	1712.40881	-617.21088	975.63007	1685.77771	-562.21027	833.63446	1722.40881	-618.96277	837.54364	1726.69519	-586.18140	759.32587	1325.48279	-521.49072	964.19061	1545.66199	-516.23376	976.54639	1356.83875	-678.03204	997.37567	1524.64771	-668.41547	1007.16766	1274.78589	-580.87933	645.35846	1293.35083	-567.39752	483.32413	1300.36938	-764.03082	335.58673	1335.67871	-898.90643	230.24895	1384.62683	-930.80194	251.17105	1333.07910	-849.91522	91.47583	1598.88232	-552.32318	643.98798	1567.83337	-535.69690	521.41028	1558.66968	-577.56445	256.18027	1503.97961	-587.58130	72.88445	1458.57898	-627.14276	49.43246	1500.78699	-432.86755	38.88308	1440.76208	-615.16034	1711.86816															 
79	0.780	1379.35156	-505.80060	1674.67395	1510.50195	-502.97119	1661.69885	1381.03076	-639.61304	1620.97253	1510.36426	-635.08911	1613.46057	1435.17871	-640.94287	1462.16089	1438.36157	-678.91669	1134.86426	1434.73743	-530.36926	1384.32532	1426.48901	-492.07968	1208.06030	1513.25623	-713.58679	1291.72974	1273.02063	-588.15869	1416.92249	1205.65308	-582.06946	1212.82666	1197.12244	-576.73187	1099.65442	1173.83691	-524.15796	958.60010	1207.94263	-432.58981	864.82440	1179.36121	-494.15829	843.41644	1171.44470	-432.50183	777.32184	1595.97058	-573.83105	1415.42065	1682.85876	-617.12738	1217.81775	1695.54932	-612.51868	1095.90771	1713.97583	-601.99231	976.43866	1687.20166	-545.05267	835.23114	1724.25476	-601.41077	838.26318	1728.51904	-567.56293	760.77527	1327.10229	-511.16205	965.51001	1547.22009	-507.49460	976.94940	1357.84863	-668.28888	998.35986	1525.68506	-659.09271	1007.57745	1275.05029	-566.19781	646.95422	1293.82751	-550.09985	485.21188	1301.71228	-744.92023	335.96655	1337.22778	-878.61328	229.01132	1386.56018	-910.85919	248.97026	1333.08667	-827.26044	91.54975	1599.31128	-546.97284	643.60858	1568.89514	-531.48718	520.99152	1558.91943	-576.37384	256.27048	1503.89636	-587.51910	73.03011	1458.47534	-627.09167	49.78887	1501.15430	-432.62195	38.56817	1441.17737	-604.53204	1712.88623															 
80	0.790	1379.60962	-495.55493	1675.01318	1510.79688	-492.44666	1662.25964	1381.72107	-629.58234	1621.97424	1511.11279	-624.82587	1614.72107	1436.08862	-631.18481	1462.95618	1439.61462	-669.37958	1135.50525	1435.58191	-520.93842	1385.01123	1427.45313	-482.97397	1208.71252	1514.59583	-703.98688	1292.65210	1273.87195	-579.07654	1417.58350	1206.59216	-575.12128	1213.24365	1198.26599	-571.13214	1100.10376	1174.53918	-522.21661	957.81299	1207.94116	-432.96381	861.37585	1179.81787	-495.47186	841.76416	1171.27271	-435.74503	773.91162	1596.77063	-563.95764	1416.30322	1684.19006	-604.84229	1218.40442	1697.11218	-598.86804	1096.60107	1715.58289	-586.65308	977.32275	1688.61475	-527.90363	837.01013	1726.01086	-583.94122	839.22504	1730.16003	-549.03082	762.22467	1329.23718	-501.18451	966.89136	1548.83716	-498.45486	977.43390	1358.79065	-658.49420	999.34308	1526.72400	-650.08411	1007.93945	1275.50769	-551.78076	648.57147	1294.40015	-532.98053	487.21387	1303.03735	-725.81616	335.59018	1338.78198	-857.79321	226.61890	1388.40527	-890.50812	245.47435	1333.10156	-802.00183	91.45556	1599.85693	-541.51678	643.44073	1569.78882	-527.09308	520.57184	1559.26563	-574.65082	256.38947	1503.90759	-587.27045	73.19675	1458.36670	-626.94153	50.13217	1501.40857	-432.42657	38.33853	1441.62268	-593.95300	1713.84448															 
81	0.800	1379.85901	-485.48669	1675.28467	1511.05859	-482.03198	1662.76648	1382.46350	-619.73474	1622.92932	1511.76904	-614.62140	1615.87085	1437.21252	-622.22559	1463.84875	1440.95886	-660.22766	1136.25769	1436.32153	-511.64301	1385.65820	1428.45679	-473.70706	1209.31128	1515.93689	-694.49036	1293.62036	1274.72937	-570.12488	1418.13550	1207.37024	-568.28998	1213.73438	1199.19714	-565.57892	1100.60645	1175.07092	-520.35504	957.19696	1207.62317	-433.44766	858.23120	1180.13171	-496.50055	840.28131	1171.08472	-439.16891	770.86499	1597.47351	-554.12732	1417.12256	1685.43237	-592.71802	1219.02832	1698.53430	-585.45117	1097.33850	1717.33008	-571.18195	978.27899	1689.96960	-510.71960	838.65387	1727.95593	-566.24677	840.32050	1731.83618	-530.48706	763.91846	1330.52307	-490.80396	968.10223	1550.41125	-489.63928	977.80896	1359.69836	-648.61426	1000.19055	1527.72827	-641.06805	1008.26678	1276.07776	-537.58289	650.30634	1294.99158	-516.29230	489.20575	1304.28320	-706.32764	334.52780	1340.22729	-836.42346	223.16301	1390.06311	-869.81287	240.74930	1333.37781	-776.25433	90.29293	1600.52234	-535.87744	643.34839	1570.64734	-522.60583	520.20227	1559.69226	-572.43939	256.44208	1503.94092	-586.98596	73.35393	1458.40491	-626.95392	50.50417	1501.66895	-432.40771	38.23133	1442.07312	-583.45618	1714.73560															 
82	0.810	1380.13464	-475.34988	1675.53992	1511.38855	-471.69223	1663.17981	1383.11462	-609.91376	1623.79382	1512.48718	-604.52039	1616.90369	1437.91162	-612.33398	1464.32568	1442.11230	-650.78656	1136.76147	1436.91724	-502.35645	1386.20947	1429.38037	-464.56714	1209.85583	1517.22754	-685.08295	1294.47986	1275.49304	-561.06549	1418.63196	1208.10144	-561.46411	1214.22705	1200.12329	-560.25201	1101.10437	1175.81982	-518.36755	956.76221	1207.33350	-433.98901	855.43884	1180.29297	-497.75082	839.17889	1171.00562	-442.41507	768.10046	1598.12268	-544.43109	1417.95142	1686.59338	-580.73615	1219.67517	1699.83972	-572.27869	1098.15320	1718.82153	-556.06256	979.37354	1691.42834	-493.34839	840.62097	1729.63135	-549.04156	841.57819	1733.61902	-511.73660	765.78857	1332.26660	-480.76971	969.30011	1552.08691	-480.77701	978.06696	1360.51868	-638.94037	1001.02490	1528.67053	-632.43506	1008.57977	1276.50830	-523.64471	652.07721	1295.73560	-499.90652	491.29483	1305.44287	-686.87122	332.95972	1341.69104	-814.42462	218.65298	1391.70764	-848.57275	234.73430	1333.64929	-748.94525	88.94671	1601.33691	-529.77521	643.24536	1571.52039	-517.85046	519.84222	1559.99451	-570.19415	256.47549	1503.99597	-586.73468	73.51888	1458.56824	-627.01471	50.96067	1501.79895	-432.23483	38.06792	1442.55347	-573.03137	1715.49731															 
